<?xml version="1.0" standalone="no"?>
<!DOCTYPE svg PUBLIC "-//W3C//DTD SVG 20010904//EN"
 "http://www.w3.org/TR/2001/REC-SVG-20010904/DTD/svg10.dtd">
<svg version="1.0" xmlns="http://www.w3.org/2000/svg"
 width="303.000000pt" height="267.000000pt" viewBox="0 0 303.000000 267.000000"
 preserveAspectRatio="xMidYMid meet">

<g transform="translate(0.000000,267.000000) scale(0.100000,-0.100000)"
fill="#000000" stroke="none">
<path d="M2285 2238 c-60 -15 -83 -18 -97 -9 -15 10 -16 8 -9 -13 13 -32 -19
-85 -38 -62 -9 11 -9 15 1 18 8 3 6 7 -6 11 -10 4 -15 3 -11 -3 8 -13 -1 -13
-26 0 -34 19 -20 3 24 -25 62 -41 162 -141 198 -197 l32 -49 -23 -49 c-40 -85
-19 -170 54 -224 21 -16 42 -21 90 -21 53 0 68 4 99 28 48 36 67 75 67 132 0
89 -57 157 -143 171 -28 5 -45 16 -69 48 -17 22 -47 57 -66 78 -19 20 -31 41
-28 47 4 6 26 11 49 11 34 1 38 3 24 11 -9 5 -23 7 -30 3 -7 -5 -6 -1 3 10 16
21 23 49 9 40 -5 -3 -7 -10 -4 -15 4 -5 1 -9 -4 -9 -10 0 -15 14 -12 33 0 4
-4 7 -11 7 -6 0 -3 6 7 14 18 13 18 14 -10 10 -25 -3 -23 -1 10 10 59 21 12
17 -80 -6z m-75 -38 c0 -5 -2 -10 -4 -10 -3 0 -8 5 -11 10 -3 6 -1 10 4 10 6
0 11 -4 11 -10z m382 -320 c60 -74 -35 -233 -127 -214 -57 11 -64 15 -85 52
-56 94 26 197 150 187 31 -2 50 -10 62 -25z"/>
<path d="M467 2033 c-4 -3 -3 -11 0 -17 11 -16 12 -37 3 -31 -21 13 -46 -15
-86 -98 -24 -50 -56 -128 -71 -175 -23 -70 -33 -89 -57 -101 -84 -46 -125
-110 -126 -195 0 -98 66 -180 166 -205 121 -31 253 76 254 204 0 49 -41 139
-69 155 -13 6 -21 21 -21 37 0 33 54 191 91 265 15 32 24 60 18 63 -5 4 -9 12
-8 18 0 9 2 9 6 0 2 -7 9 -13 14 -13 6 0 8 4 5 9 -4 5 -3 11 1 14 5 2 2 2 -6
0 -8 -2 -11 2 -8 12 4 8 1 17 -5 21 -6 4 -8 3 -5 -3 4 -6 0 -18 -7 -28 -14
-20 -17 -18 -60 42 -13 18 -26 30 -29 26z m18 -496 c30 -30 35 -42 35 -80 0
-37 -7 -54 -42 -101 -62 -84 -127 -106 -204 -70 -103 49 -108 190 -10 252 34
22 57 28 114 30 71 3 73 3 107 -31z"/>
<path d="M445 2000 c-3 -6 1 -7 9 -4 18 7 21 14 7 14 -6 0 -13 -4 -16 -10z"/>
<path d="M603 1995 c0 -8 4 -12 9 -9 5 3 6 10 3 15 -9 13 -12 11 -12 -6z"/>
<path d="M1671 1504 c0 -11 3 -14 6 -6 3 7 2 16 -1 19 -3 4 -6 -2 -5 -13z"/>
<path d="M2661 1459 c-157 -30 -214 -237 -100 -355 l31 -32 -22 -71 c-11 -39
-34 -103 -50 -143 -16 -39 -26 -76 -23 -81 3 -6 1 -7 -4 -4 -13 8 -26 -20 -16
-35 3 -6 2 -8 -3 -5 -5 3 -17 -8 -26 -24 -10 -16 -13 -29 -8 -29 5 0 12 9 15
21 9 28 56 22 70 -8 7 -17 18 -23 42 -23 17 0 35 5 39 12 5 8 2 9 -9 5 -10 -3
-17 -2 -17 3 0 6 9 10 19 10 23 0 92 135 132 260 22 70 32 88 56 100 47 25 69
43 96 83 35 52 42 104 23 170 -19 64 -83 131 -137 142 -19 3 -41 8 -49 10 -8
1 -35 -1 -59 -6z m164 -69 c34 -32 47 -83 34 -137 -9 -44 -34 -91 -54 -105 -6
-5 -6 -8 0 -9 21 -1 -82 -29 -110 -29 -74 0 -143 86 -130 164 7 50 27 75 91
116 42 27 56 31 97 27 32 -3 56 -12 72 -27z"/>
<path d="M505 1046 c-73 -33 -116 -119 -96 -193 20 -73 66 -114 144 -128 21
-4 42 -16 47 -26 6 -10 33 -46 61 -79 27 -33 47 -65 44 -70 -3 -6 -23 -10 -43
-11 -20 0 -31 -3 -24 -6 6 -2 9 -10 5 -16 -4 -8 -1 -7 9 1 13 10 16 10 15 0
-3 -26 27 -98 40 -98 7 0 40 7 73 16 55 16 61 16 87 0 l28 -17 -27 25 c-31 27
-36 38 -14 30 8 -3 16 3 19 16 4 15 -2 24 -21 34 l-27 14 27 -1 c14 -1 25 -4
23 -7 -2 -3 4 -6 13 -6 10 0 -22 38 -78 95 -52 53 -101 108 -109 123 -12 24
-11 29 9 58 45 64 36 152 -23 207 -53 50 -123 65 -182 39z m156 -55 c30 -31
34 -53 23 -123 -8 -48 -34 -75 -85 -88 -34 -9 -46 -8 -77 7 -20 10 -45 32 -54
49 -16 27 -17 39 -7 82 7 36 16 53 30 57 10 4 19 10 19 15 0 12 49 28 88 29
24 1 42 -7 63 -28z"/>
<path d="M2568 653 c7 -3 16 -2 19 1 4 3 -2 6 -13 5 -11 0 -14 -3 -6 -6z"/>
</g>
</svg>
