<?xml version="1.0" encoding="UTF-8"?>
<svg version="1.1" width="100%" height="70" viewBox="0 0 1212 1500" xmlns="http://www.w3.org/2000/svg">
    <path transform="translate(642,103)"
        d="m0 0h34l34 3 27 5 28 7 27 9 30 13 21 11 27 18 13 9 8-1 23-7 28-7 38-6 33-4 11-1h40l31 3 24 5 21 7 17 8 14 10 11 11 10 15 5 13 3 15v13l-3 19-6 18-12 25-18 27-12 14-9 10-7 8-9 10-7 7-4 3-2-1 13-18 7-10 8-15 6-15 4-14 2-13v-13l-2-12-5-14-7-11-9-10-14-10-16-8-19-6-27-5-16-2-19-1h-20l-37 3-25 3v3l10 11 7 8 12 14 14 20 6 8 2 1 15 1 16 5 14 8 10 9 8 11 6 12 4 15v18l-3 14-7 14-10 13-10 8-12 7-13 4-5 1h-20l-16-5-13-7-12-11-9-13-5-11-3-13v-18l2-10 4-10 6-11 6-9-1-6-9-13-13-18-14-15-9-10-13-12-14-12-20-15-12-8-19-12-25-13-19-8-24-8-27-6-30-4-16-1h-34l-37 4-29 5-25 6-30 10-25 11-30 15-20 12-17 12-16 13-11 9-26 26-9 11-9 10-13 19-12 18-12 21-11 22-11 27-9 29-7 26-2 2v-14l7-43 7-26 9-26 9-21 9-19 12-21 14-22 10-13 8-10 9-10 12-13 10-10 8-7 12-11 14-11 14-10 17-11 25-14 19-9 23-9 25-8 29-7 26-4z"
        fill="#0E8298" />
    <path transform="translate(939,610)"
        d="m0 0h2l-1 12-5 33-6 26-10 33-12 29-8 17-10 18-15 23-13 17-10 13-15 16-7 8-17 16-13 11-19 14-19 12-21 12-17 9-29 12-33 11-34 7-30 4-24 2h-23l-34-3-32-5-22-5-33-11-31-13-23-12-23-14-14-10-3-2-6 1-34 9-28 6-37 6-33 3h-42l-25-2-23-4-25-7-18-8-12-8-13-11-8-10-7-12-5-15-1-5v-21l4-20 7-19 8-16 9-15 12-16 9-11 11-13 10-10 7-8 11-11 2 1-7 11-7 9-10 15-9 19-6 19-2 11v20l3 13 8 16 8 10 10 9 18 10 23 9 25 5 14 2h56l32-3 15-2h5l-6-8-12-14-10-12-13-17-9-13v-2l-18-1-13-4-12-6-10-8-9-10-8-15-4-13v-25l5-16 6-11 11-12 8-7 15-7 13-3h18l14 3 12 5 10 7 11 11 8 13 5 14 1 6v18l-2 10-5 12-10 16-2 4 5 9 12 16 13 16 12 13 14 14 11 9 10 9 19 14 18 12 21 12 16 8 19 8 24 8 27 6 33 4 21 1h26l26-2 30-5 34-8 30-10 39-18 22-12 30-20 16-13 14-12 26-26 7-8 11-13 13-18 12-19 12-21 13-28 9-25 13-44z"
        fill="#0E8297" />
    <path transform="translate(588,26)"
        d="m0 0h48l27 2 29 4 3 1v2l-6 1-41 1-29 2-29 4-33 7-35 10-26 9-30 13-17 8-23 13-25 15-19 13-18 14-14 11-30 28-14 14-1 2h-2l-2 4-13 14-13 17-13 18-8 12-12 19-12 21-16 33-11 27-12 36-6 22-1 8 4 2 12 11 9 12 8 17 3 10 1 7v21l-2 12-6 16-9 15-9 10-13 10-15 8-18 5-8 1h-13l-15-3-13-5-13-7-14-12-9-11-9-17-4-13-2-17 1-15 4-16 8-16 10-14 9-8 13-8 14-6 3-1 4-11 11-35 10-28 10-23 8-17 12-22 8-14 14-21 10-14 12-16 11-13 9-11 14-15 18-18 8-7 13-11 14-11 17-13 26-17 20-12 18-10 29-14 29-11 37-12 26-6 30-5 34-4z"
        fill="#0E8297" />
    <path transform="translate(1081,480)"
        d="m0 0 16 1 16 4 16 8 11 8 10 11 9 14 5 11 4 16 1 16-2 14-4 15-8 15-8 10-5 6-13 10-16 8-9 4-10 36-7 21-14 34-14 29-14 25-12 18-13 19-13 17-12 14-9 10-7 8-26 26-8 7-10 9-11 9-19 14-17 12-19 12-18 10-16 8-25 12-25 10-21 7-32 9-38 8-27 4-21 2h-82l-45-5v-2l9-2 49-2 31-3 36-6 25-6 34-10 24-9 30-13 29-15 28-17 21-14 28-22 15-13 13-12 25-25 7-8 14-17 12-16 11-16 10-15 13-22 15-29 10-23 14-39 7-23 4-18-1-3-11-9-10-13-9-17-4-14-2-16 2-18 6-18 8-14 9-11 7-7 11-8 10-5 14-4z"
        fill="#0E8297" />
    <path transform="translate(669,429)"
        d="m0 0h66l5 5 22 51 14 33 6 17 2 1 2-6 7-16 5-12 12-28 12-29 7-14 3-2h47l19 1 1 1v190l-4 2h-59l-1-2-2-43h-3l-4 14-4 10-4 12-4 7-6 2h-52l-5-5-8-20-9-17-2-1v41l-2 2h-61l-2-7v-185zm152 160m-1 1-1 3v5l2 1 1-5z"
        fill="#FEFEFE" />
    <path transform="translate(334,429)"
        d="m0 0h39l8 1 1 1 1 40 9-6 10-10 6-5 6-7 8-7 7-6 4-1h75v3l-44 44-8 7-10 10-8 7-7 7-6 8-1 3 4 2 12 14 10 11 7 8 24 28 13 14 7 8 12 14 2 3v3h-75l-8-7-12-13-9-11-2-4v-5h3l-11-12-6-6-10-2-4-2-1 3v8 3l-1 2-1-1-1 13 1-11 2 1 1 11 2 4v13l-1 14-2 2h-60l-2-4-1-25v-131l1-25 1-7 1-1z"
        fill="#FEFEFE" />
    <path transform="translate(588,26)"
        d="m0 0h48l27 2 29 4 3 1v2l-6 1-41 1-29 2-29 4-33 7-35 10-26 9-30 13-17 8-23 13-25 15-19 13-18 14-14 11-30 28-14 14-1 2h-2l-2 4-13 14-13 17-8 11h-4l-2 3h-2l-1 7h-4l-1 4h-2l-2 4h-2l-2 6h-2l-2 4-3 3-1 3-3 2-4 4-7 4h-9l-6 2h-8l-14-5-8-3-1-4 1-2-2-1 3-4 3-7 6-12 3-3 4-9h2l2-6 3-1 1-4h2l2-5 4-5 1-2h3l1-4 1-5 6-8 11-12 7-8 21-21 8-7 13-11 14-11 17-13 26-17 20-12 18-10 29-14 29-11 37-12 26-6 30-5 34-4z"
        fill="#22A7C3" />
    <path transform="translate(1e3 752)"
        d="m0 0 3 4-3 1 1 2 2 1v5l4 6 7 14 4 6 5 3v16l-4 10-3 12-6 5-3 6 2 2-11 13-9 11-15 16-23 23-8 7-10 9-11 9-19 14-17 12-19 12-18 10-16 8-25 12-25 10-21 7-32 9-38 8-27 4-21 2h-82l-45-5v-2l9-2 49-2 31-3 36-6 25-6 34-10 24-9 30-13 29-15 28-17 21-14 28-22 15-13 13-12 25-25 7-8 14-17 5-7 3 1 2-4 2-3h2l1-4 9-12h2l1-4 4-5 1-3h2l2-4 4-7 2-1 1-3h2v-4l2-2 2-5 3-3h2l1-5 3-4 2-1 1-4z"
        fill="#22A6C2" />
    <path transform="translate(939,610)"
        d="m0 0h2l-1 12-5 33-6 26-10 33-12 29-8 17-10 18-15 23-13 17-10 13-15 16-7 8-17 16-13 11-19 14-19 12-21 12-17 9-29 12-33 11-34 7-30 4-65-1-2-1v-2l-13-2-6-2-7-1v-2l-4 1-13-4-9-3-17-5-1-3 1-2 10-3 6-3h3l1-5v-4l10-2 9 1 10 2h26l2-1h41l26-2 30-5 34-8 30-10 39-18 22-12 30-20 16-13 14-12 26-26 7-8 11-13 13-18 12-19 12-21 13-28 9-25 13-44z"
        fill="#40CAE8" />
    <path transform="translate(616,105)"
        d="m0 0h6l2 3 1-2 1 1 34-1 14 1 22 2 27 4 19 4 9 4v3l-2-1v2l-6 2-3 12-8 6h-3v-2l-2 1-17-1-16-2h-51l-19 2-4 1-18 2-22 4-18 4-5 2-12 3-14 4-14 5-10 5-9 3-19 10-12 7-12 6-3 3-10 5-1 3-4 1-5 5-6 2 2 3-12 10-10 8-13 12-19 19-9 11-9 10-13 19-12 18-12 21-11 22-11 27-9 29-7 26-2 2v-14l7-43 7-26 9-26 9-21 9-19 12-21 14-22 10-13 8-10 9-10 12-13 10-10 8-7 12-11 14-11 14-10 17-11 25-14 19-9 23-9 25-8 29-7 26-4z"
        fill="#40CAE8" />
    <path transform="translate(106,673)"
        d="m0 0 2 1-7 11-7 9-10 15-9 19-6 19-2 11v20l3 13 8 16 8 10 10 9 18 10 23 9 4 2 2 2 11 1 9 4 3 1h5l2 3 1 10 5 9 4 16 1 6h2l2 5-1 3-12 5-10-1h-12-3l-6 1-1-2h-18l-4-1v2l-9-1-24-6-16-6-13-7-12-9-9-8-9-12-7-14-4-15v-21l4-20 7-19 8-16 9-15 12-16 9-11 11-13 10-10 7-8z"
        fill="#40CAE8" />
    <path transform="translate(144,437)"
        d="m0 0h16l11 1 12 4 7 4 5 5 7 9 6 12 2 8v18l-2 9-5 9-2 6-2 1-5 11-5 4-6 7h-2v2l-4 3h-3l-1 3-14 7-5 2-10 2-9 1h-9l-7-2-13-4-10-6-7-5v-2l-4-2-5-7-7-16-2-10-1-6v-10l2-13h2l-1-3 5-10 3-5 4-5 11-9h2v-2l6-3 11-5 13-2h10z"
        fill="#22A6C2" />
    <path transform="translate(1051,156)"
        d="m0 0h20l24 2 29 7 13 4 15 6 7 3v2l5 2 6 7 3 1 1-2 8 8 10 15 5 13 3 15v13l-3 19-6 18-12 25-18 27-12 14-9 10-7 8-9 10-7 7-4 3-2-1 13-18 7-10 8-15 6-15 4-14 2-13v-13l-2-12-5-14-4-8 2-1-2-4-14-14-2-1v-2l-4-1-8-7-17-8-16-5-11-3-17-3-7-3-2-1v-8l-6-16-3-3-2-9-4-4 2-5 8-4z"
        fill="#40CAE8" />
    <path transform="translate(1087,498)"
        d="m0 0h16l13 3 5 2 12 9 8 11 4 8 3 12 2 10v4h-2v20l-2 7-2 6h-2l-1 4-5 9-6 7-11 8-14 6-9 3-13 1h-15l-17-5-4-2v-2l-4-2v-2l-4-2-7-6-8-13-4-10-2-16-1-7 2-14 4-9 6-8 4-7h2l2-5h2v-2l8-6 5-1v-2l10-3 14-4z"
        fill="#22A6C2" />
    <path transform="translate(669,429)"
        d="m0 0h66l5 5 22 51 14 33 6 17 2 1 2-6 7-16 5-12 12-28 12-29 7-14 3-2h47l19 1 1 1v190l-4 2h-59l-1-2-2-43h-3l-4 14-4 10-4 12-4 7-6 2h-52l-5-5-8-20-9-17-2-1v41l-2 2h-61l-2-7v-185zm45 10-34 1-1 1-1 17v152l1 2h43l1-1v-15l-1-32v-37l1-1 8 15 11 26 11 28 5 14 2 2 5 1h42l3-2 9-24 12-30 12-29 1-3h2l1 15v21l-1 48 2 4h40l2-1v-168l-2-4h-47l-5 3-10 22-11 26-15 36-11 27-4 8-3-1-7-19-24-56-10-24-8-19-3-3zm107 150m-1 1-1 3v5l2 1 1-5z"
        fill="#22A6C2" />
    <path transform="translate(890,899)"
        d="m0 0h6l6 9 4 4 1 4h2v10l2 1-3 10-10 10-6 3h-2v2l-5 2v2l-8 5-3 1-3 3-5 1v2l-4 2h-3v2l-6 3-11 6-10 5h-2v2l-8 3-15 7-12 5-10 4-17 6-5 1 1 4-32 9-38 8-27 4-21 2h-82l-45-5v-2l9-2 49-2 31-3 26-4 8 1 7-2 2 1 9-1 1-2 9-2h5l1-3 4 1 2-2 8-2 15-5 4-1 5-2 3-1 4 1 1-3 9-2 6-4 6-1 19-10 16-8 9-5 8-3 3-3 6-1 2-4 6-2 6-3 3-3 7-4h2v-3l8-4 2-2h3v-2l7-5h2l1-3 3-1 4-5 11-8 1-2 3-1 3-3 4-3 5-4z"
        fill="#40CAE8" />
    <path transform="translate(334,429)"
        d="m0 0h39l8 1 1 1 1 40 9-6 10-10 6-5 6-7 8-7 7-6 4-1h75v3l-44 44-8 7-10 10-8 7-7 7-6 8-1 3 4 2 12 14 10 11 7 8 24 28 13 14 7 8 12 14 2 3v3h-75l-8-7-12-13-9-11-2-4v-5h3l-11-12-6-6-10-2-4-2-1 3v8 3l-1 2-1-1-1 13 1-11 2 1 1 11 2 4v13l-1 14-2 2h-60l-2-4-1-25v-131l1-25 1-7 1-1zm33 10-36 1-1 1v170l1 1h41l1-1v-59l3-5v-2h8l12 13 8 10 10 11 7 8 11 13 8 10 3 2h52l-1-4-3-3h-2l-2-4-7-7-9-11-14-15-9-11-14-15-9-11-9-10-5-6 2-4 9-9 7-6 4-5 19-19 8-7 9-9 8-7 7-8-1-2-49 1-10 8-20 20-8 7-10 11-8 7-5 3v-54l-2-3z"
        fill="#40CAE8" />
    <path transform="translate(993,302)"
        d="m0 0h21l8 3 11 6 6 6 6 12 2 10-1 14-2 7-2 8-2 5-2 1-1 4-4 5-4 8-4 1-3 3-9 6-16 6h-10l-18-3-3-1v-2l-6-2-10-9-2-5h-2l-4-8-1-4-3-8-2-12 5-16h2l1-5 3-5h2l1-4 3-3h2v-2l7-4h2v-2l8-4 12-3z"
        fill="#22A6C2" />
    <path transform="translate(563,28)"
        d="m0 0h7v2h41l2 4h-5v3l-6 1-8-1-6 2-1 2-18 1v2l-10 2-9 1-3 2-12 1v2l-10 2-10 4-7 3-9 2-6 3h-3v2l-16 6-11 5-17 8-15 8-8 6-12 6-8 6-5 1v3l-7 3h-3v2l-9 6-13 10-10 7-5 3h-2v2l-10 5-7 1-3 1-12 2h-15l-3-1h-17l1-7 2-2h3l1-4h3l1-4 5-3 8-7 16-11 9-6 18-11 7-5 16-8 5-3h3v-2l4-2h3v-2l16-8 12-5 8-4 12-3 7-1v-2h5v-2l12-4 8-4h6l11-4 19-2v-3l4 1 15-2 2-4-3-1z"
        fill="#40CAE8" />
    <path transform="translate(226,658)"
        d="m0 0h13l12 2 10 4v2l5 2 3 3 3 5 5 9 2 9 2 7-1 1 1 11-1 10-3 5-3 7h-2l-1 5-6 5-6 7-8 4-7 4-6 2h-8l-6 1-13-3-7-2-5-4-4-1-2-5-3-1v-2l-5-2-6-12-2-1-2-10v-16l4-15 3-3 3-5 5-7h2l1-3 14-8 9-2 5-2z"
        fill="#22A6C2" />
    <path transform="translate(642,103)"
        d="m0 0h34l34 3 27 5 28 7 27 9 7 3v2l9 4 16 8 7 3v2l5 1 15 8 1 3 11 8 3 1 5 5 9 6 6 5 4 2v2l4 1 3 1 2 7-1 4-4 1-2 4-4 3h-2v2l-4 1-2 3-7-1-7-3-5-1-6-5-9-5-5-4-6-3-5-4-14-8-9-4-10-3-7-4-3 1-16-7-24-8-27-6-30-4-16-1h-34l-37 4-29 5-25 6-30 10-25 11-30 15-20 12-14 10-5-1 2-2 4-1 6-7 4-1 3-3 8-4h2l2-4 16-8 10-6 16-8 13-5 12-5 14-5 14-4 9-2 13-3 7-2 22-4 18-2 15-2 8-1h51l25 3h10l3 1 7-5 3-12 4-2h3v-2l2-1-9-4-25-5-29-4-20-1-14-1-28 1-4-1v-2z"
        fill="#22A6C3" />
    <path transform="translate(344,848)"
        d="m0 0h4v3l5 2 1-2 10 8 7 3 1 3 11 6 14 9 16 8 10 3 15 7 24 9 22 6 22 4 32 4-2 2h-28l-14-3-9 1-4 1-1 2 2 1-2 5-9 4-5 2h-5v5l6 1 11 3 9 3 13 4 7 1 9 2 4 1 10 3v2l61 1-4 2-14 1h-23l-34-3-32-5-22-5-33-11-31-13-23-12-23-14-7-5 3-5-4-2-4-4v-2l-4-2-1-5 1-8 1-9 2-6 3-3z"
        fill="#22A6C2" />
    <path transform="translate(1024,152)"
        d="m0 0h40l31 3 24 5 21 7 17 8 14 10 2 2v3l-4-1-5-5v-2l-5-2v-2l-9-3-13-5-18-5-24-6-24-2h-20l-14 2-6 3h-2l-1 7 4 2 2 9 3 3 6 16v6l-1 2 9 3 17 3 14 4 13 4 17 8 9 8 3 1v2l4 2 13 13 3 6-5-1-7-9-9-8-14-9-14-6-16-5-27-5-16-2-19-1h-33l-27-4-1-1h-6l-5-5-6-4-4-3-3-9v-5h-2l-1-5 3-6 10-4 1-2 8-1 2-4v-1l50-7z"
        fill="#22A6C2" />
    <path transform="translate(163,442)"
        d="m0 0 10 1 11 4 8 6 7 8 5 9 1 4v16l-4 6-13 3-4 1-7 3-8 7-2 3h-2l-2 4-4 4h-2l-1 3-7 5-8 2-6 1-6-1-13-5-5-6v-2h-2l-4-9v-10l2-11 3-6h2l2-5 5-5 10-13 8-7 4-3 10-5z"
        fill="#41CBE9" />
    <path transform="translate(139,847)"
        d="m0 0h7l30 5h56l7-1h8l9 3 10 1v2l3-1 1 4h3l2 7 1 8 2 15 1 3-4 6-4 1 1 5-35 6-27 3-13 1h-42l-25-2-9-2v-3l6 1h16l1 3 8-3 2 1h11l10 1 10-4 2-5-1-3h-2l-5-16-2-8-4-7-1-10-1-2h-6l-8-4-11-2-4-1z"
        fill="#22A6C2" />
    <path transform="translate(1097,503)"
        d="m0 0h12l10 4 9 7 6 6 5 11 2 7v9l-2 6-6 3-10 3-7 12-3 5-5 8-8 7-10 4-8 1-8-1-3-2-6-1v-2l-4-2-5-7-3-9v-11l4-11h2l1-4 4-4 4-5 10-7h2l3-15 2-5h2v-2h3v-2z"
        fill="#41CBE9" />
    <path transform="translate(334,429)"
        d="m0 0h39l8 1 1 1 1 40 9-6 10-10 6-5 6-7 8-7 7-6 4-1h75v3l-44 44-8 7-10 10-8 7-4 1-2 3h-2l2-4 2-2-1-2 5-5 8-9h2l2-4h2l2-4 17-17 8-7 7-8 2-3-1-1h-53l-8 6-14 14-8 7-16 15-7 6-5-1-2-45-3-2h-39l-4 1-1 3v128l1 42 2 1h40l5-1 1-10 3-2 3 4v17l-2 2h-60l-2-4-1-25v-131l1-25 1-7 1-1z"
        fill="#23A7C3" />
    <path transform="translate(1e3 306)"
        d="m0 0 13 1 12 6 8 7 4 10v13l-2 6h-2v2h-2l-2 4-7 3h-3v2l-6 1-2 4-8 7-7 5-11 2-9-1-9-8-5-16 3-13 2-5 6-14 9-10 8-4z"
        fill="#41CBE9" />
    <path transform="translate(237,663)"
        d="m0 0 11 1 9 4 6 4 6 8 3 11v8l-2 8h-2l-3 6-7 4-4 3h-2l-2 4-11 8-10 3-9-1-6-4-6-5-4-9v-13l5-9h2l2-5 5-7 2-8h2v-3l6-5z"
        fill="#41CBE9" />
    <path transform="translate(684,437)"
        d="m0 0h44l5 2 7 14 9 22 7 17 11 25 10 23 5 14 4 1 3-10 4-11 5-11 5-13 5-10 8-20 3-9 6-14 5-13 5-6 2-1h53l2 2v173l-4 2h-41l-3-2-1-3-1-63-4 2-4 11-5 11-1 7 2 1-4 14-5 11-5-2-2 5-3 6-5 2h-33l-14-1-3-3-4-7-4-13-4-9-8-19-6-13-4-8-1 3v67l-1 2-7 1h-38l-3-2v-172l1-2zm30 2-34 1-1 1-1 17v152l1 2h43l1-1v-15l-1-32v-37l1-1 8 15 11 26 11 28 5 14 2 2 5 1h42l3-2 9-24 12-30 12-29 1-3h2l1 15v21l-1 48 2 4h40l2-1v-168l-2-4h-47l-5 3-10 22-11 26-15 36-11 27-4 8-3-1-7-19-24-56-10-24-8-19-3-3zm107 150m-1 1-1 3v5l2 1 1-5z"
        fill="#41CBE9" />
    <path transform="translate(583,565)"
        d="m0 0 15 2 8 5 6 7 3 8v18l-5 10-8 7-5 2-6 1h-11l-13-4-9-8-4-10v-15l4-11 5-6 8-4z" fill="#23A7C3" />
    <path transform="translate(416,515)"
        d="m0 0 8 2 5 4 9 11 12 13 7 8 24 28 13 14 7 8 12 14 2 3v3h-75l-8-7-12-13-6-8 1-4 4 1 4 2 5 5 10 12 10 2h42l9-1-6-7-8-7v-2l-3-1-7-8-14-17-12-13-7-8-7-9v-2l-3-1-7-8-9-10z"
        fill="#23A8C4" />
    <path transform="translate(607,106)"
        d="m0 0h11v3l-14 3-13 1-7 2-13 4h-5l-3 2-16 4-23 7-6 2-5 1-1 2-8 3-11 5-5 1v2l-12 6-2 2-2-1v2l-5 3-6 2-3 3h-3v2l-7 4-4 2h-3l-2 4h-3v2l-5 2-1 3-4 1-1 3-6 4-3 1v2l-7 4-1 3-4 2-5 6-7 6-3 3h-2l-2 4h-2v3l-4 1v3l-6 5-2 2-4 6h-2l-2 4-7 8-1 4-2 1-2 4-3-1-1 4-2 3h-2l-1 5-4 7-4 2 2-5 10-16 10-13 8-10 9-10 12-13 10-10 8-7 12-11 14-11 14-10 17-11 25-14 19-9 23-9 25-8 29-7z"
        fill="#25A9C6" />
    <path transform="translate(579,576)" d="m0 0h13l7 3 5 6 2 6v11l-4 7-9 6-4 1h-9l-7-3-6-5-3-7v-9l3-9 6-5z"
        fill="#FEFEFE" />
    <path transform="translate(915,686)"
        d="m0 0 1 4-4 8-2 6-4 10h-2l-2 7-4 9h-2l1 5h-2l-1 3-3 3-9 16-8 10-8 12h-2l-2 4-3 5-6 5-6 7h-2l-3 6h-3l-1 4-5 5h-2l-2 4-5 5-7 6-3 3h-2l-1 3-4 3h-2v2l-4 2h-3l-1 3h-2v2l-6 5v-2h-2v4l-5 1v2h-2v2l-5 1v2l-7 3-6 3-4 4h-3v2l-7 3-8 4h-2v2l-4 1-9 5-4 2-7 1-12 6-7 3-5 2-9 3-11 3-5 1-15 4-14 3-11 1-6 2h-5l5-4 34-7 26-7 20-7 39-18 22-12 30-20 16-13 14-12 26-26 7-8 11-13 13-18 12-19 12-21 13-28z"
        fill="#25A9C5" />
    <path transform="translate(910,731)"
        d="m0 0 1 3-8 18-10 19-16 26-10 13-12 16-9 10-7 8-12 13-8 7-2-2 2-2h3l1-4h2l2-4h2l2-4h2l1-4 5-5 8-11h2l1-4 6-7 15-20 11-17 5-9 11-20 3-4 7-14h2z"
        fill="#25AAC6" />
    <path transform="translate(307,363)"
        d="m0 0 3 1-1 5-12 29-9 29-7 26-2 2v-14l7-43 5-18h1v5l1 3h2v-4l3 1 1-4h2l1-7 5-10z" fill="#26ABC7" />
    <path transform="translate(939,610)"
        d="m0 0h2l-1 12-5 33-6 26-2 5-1-2-3-1v-3l-2 2 1 2-2 2v-3h-2v2h-2l1-5 9-27 11-37z" fill="#26AAC7" />
    <path transform="translate(1169,325)"
        d="m0 0 1 3-10 14-11 13-9 10-7 8-9 10-7 7-4 3-2-1 13-18 7-10 8-15 8-20 3 1v3h-2l-1 10v6l4-1-1-2 4 1v-7l5-5 5-6h2v-2h3z"
        fill="#24A8C4" />
    <path transform="translate(552,1031)" d="m0 0h32l4 8h-2v2h-22l-45-5v-2l9-2z" fill="#25A9C6" />
    <path transform="translate(404,236)"
        d="m0 0 2 1-2 4-10 9-20 20-9 11-9 10-13 19-12 18-13 22-2-1 5-9 4-8h2v-5l2-5 3-5h2l1-5 6-9 1-3h2v-2h2l2-5 3-1v-3h3l1-5h2l2-4h2l1-4 3-2 4-1 1-4 2-1 1-3 4-1 1-4h3l1-4h3v-3l4-1v-3l4-1v-3l4-1v-3l3-1z"
        fill="#24A9C5" />
    <path transform="translate(318,472)" d="m0 0h1l2 7 1 25v22l-1 66-2 11h-1l-1-9v-108z" fill="#10869C" />
    <path transform="translate(106,673)"
        d="m0 0 2 1-7 11-7 9-10 15-8 17-3 1-2-2h-1l-1-6h-3v3l-3 2v3l-2 1-2 3-3 1-3 5-3 1 2-4 10-13 11-13 7-8 8-8 7-8z"
        fill="#25A9C6" />
    <path transform="translate(767,900)"
        d="m0 0h3l-1 3-20 12-24 13-31 13-11 4h-3l1-4 9-2 2-2 6-1v-2l10-3 26-13 7-3 7-4 7-2 1-3 6-2 2-2z"
        fill="#26ABC7" />
    <path transform="translate(734,993)"
        d="m0 0 3 1-5 5-9 3-2 2h-6l-4 2-3 2h-5l-4 2-6 2-10 3-3 2-4-1-1 2-9 2-5 1-6 2-5 1h-4l-7 1v-3l27-6 40-12 21-8z"
        fill="#27ABC8" />
    <path transform="translate(580,574)"
        d="m0 0h9l8 2 7 6 3 6 1 5v7l-3 9-7 6-11 3h-8l-9-3-5-5-3-6-1-7v-8l3-6 7-6zm-1 2-9 4-4 5-2 7v9l4 8 8 6 4 1h9l8-3 6-5 3-6v-11l-3-8-7-6-4-1z"
        fill="#41CBE9" />
    <path transform="translate(473,585)" d="m0 0 7 6 11 12 8 7 1 3-10 1h-43l-3-2h51l-1-3-3-2v-2h-2l-7-8-9-10z"
        fill="#41CBE9" />
    <path transform="translate(404,236)"
        d="m0 0 2 1-2 4-10 9-20 20-7 8-2-4 4-1 1-4 2-1 1-3 4-1 1-4h3l1-4h3v-3l4-1v-3l4-1v-3l4-1v-3l3-1z"
        fill="#29AECB" />
    <path transform="translate(369,236)"
        d="m0 0 2 2-2 1-2 4h-2l-2 4-7 8-1 4-2 1-2 4-3-1-1 4-2 3h-2l-1 5-4 7-4 2 2-5 10-16 10-13 6-8z" fill="#25A9C6" />
    <path transform="translate(1151,285)" d="m0 0h2l3 11-1 5 2 7-1 3-1-1-2 11-3 7h-2l1-8 2-13z" fill="#26ABC7" />
    <path transform="translate(531,961)" d="m0 0 60 1-4 2-14 1h-23l-15-1-4-1z" fill="#2BB1CD" />
    <path transform="translate(798,131)" d="m0 0 6 1 24 11 20 11 3 2v2l-6-2-14-7v-2l-5-1-28-14z" fill="#148BA2" />
    <path transform="translate(734,993)" d="m0 0 3 1-5 5-9 3-2 2h-6l-4 2-3 2h-5l-4 2v-3l12-5 21-8z" fill="#25AAC6" />
    <path transform="translate(1129,368)" d="m0 0 4 2-4 8-12 12-4 3-2-1 13-18z" fill="#148CA3" />
    <path transform="translate(968,799)" d="m0 0 1 3-5 6-1 3-5 5-6 8-1 3-5 5-1 2h-2l2-5 11-15 8-12z" fill="#12899F" />
    <path transform="translate(1169,325)" d="m0 0 1 3-10 14-5 6h-1v-8l5-5 5-6h2v-2h3z" fill="#25AAC6" />
    <path transform="translate(758,1015)" d="m0 0h4v3l-15 5-8 2h-5l1-3 8-1 1-2 12-3z" fill="#27ACC8" />
    <path transform="translate(798,877)" d="m0 0h5l-4 5-19 14-5 3h-2v-2h2l1-3 5-2 1-3h5l1-3 4-1 2-4 3-2z"
        fill="#28ADCA" />
    <path transform="translate(915,686)" d="m0 0 1 4-4 8-2 6-4 10h-2l-2 7-4 4-1-2 8-15z" fill="#21A3BE" />
    <path transform="translate(120,908)" d="m0 0 7 1h16l2 3 3 2-18-1-9-2z" fill="#28ADCA" />
    <path transform="translate(217,210)" d="m0 0 1 4-3 5h-3l-2 5-4 5-3 3-1 3-5 2 2-4 8-11z" fill="#138AA0" />
    <path transform="translate(720,1025)" d="m0 0h9v2l-15 4-5 1h-9l-1-2 7-1 8-2z" fill="#28ADC9" />
    <path transform="translate(767,900)" d="m0 0h3l-1 3-20 12-6 3v-4l5-3 7-2 1-3 6-2 2-2z" fill="#2AAFCC" />
    <path transform="translate(1185,297)" d="m0 0 1 3-9 17-5 7h-2l1-6 6-9 4-5z" fill="#27ADC9" />
    <path transform="translate(675,943)" d="m0 0 3 3-10 4-12 3h-4l1-4 11-1 3-3h8z" fill="#29AFCB" />
    <path transform="translate(662,1017)" d="m0 0 2 1-4 4-10 2h-4l-7 1v-3z" fill="#28AECA" />
    <path transform="translate(332,286)" d="m0 0 2 1-1 4-4 5-5 8-3 7h-2l2-6 8-15z" fill="#25AAC6" />
    <path transform="translate(346,263)" d="m0 0h2l-1 4-2 3h-2l-1 5-4 7-4 2 2-5z" fill="#27ADC9" />
    <path transform="translate(61,722)" d="m0 0 2 1v4l-2 1-2 3-3 1-3 5-3 1 2-4z" fill="#28ADC9" />
    <path transform="translate(116,838)" d="m0 0 5 1 15 6-4 2-7-3-3-2-6-2z" fill="#28ADC9" />
    <path transform="translate(1157,176)" d="m0 0 9 5 7 6v3l-4-1-5-5v-2l-5-2v-2h-2z" fill="#27ACC8" />
    <path transform="translate(696,1007)" d="m0 0 3 1-4 4-5 1-2 1h-6l1-3z" fill="#28ADCA" />
    <path transform="translate(421,221)" d="m0 0h5l-1 3-11 8-2-1 1-2h2v-2h2l2-4z" fill="#27ACC8" />
    <path transform="translate(651,1037)" d="m0 0h9l2 2-4 1h-15l-1-2z" fill="#28ADCA" />
    <path transform="translate(263,245)" d="m0 0h3l-1 4-5 7-2-1 1-6z" fill="#168EA5" />
    <path transform="translate(552,29)" d="m0 0h17l-3 1v2l-5-1v1h-8z" fill="#2AB0CC" />
    <path transform="translate(667,945)" d="m0 0m-1 1m-1 1m-1 1m-2 0 2 2-3 2-9 1 1-4z" fill="#25A9C6" />
    <path transform="translate(307,363)" d="m0 0 3 1-1 5-3 7-3-3 4-9z" fill="#27ACC8" />
    <path transform="translate(325,332)" d="m0 0h2l-1 4-8 14-2-1 5-9z" fill="#27ADC9" />
    <path transform="translate(708 1e3)" d="m0 0 3 1-3 4h-5l-4 2v-3z" fill="#26ABC7" />
    <path transform="translate(529,32)" d="m0 0h10v2l-9 2h-5l1-3z" fill="#25AAC6" />
    <path transform="translate(687,939)" d="m0 0 3 1-1 3-9 2 1-4z" fill="#27ACC8" />
    <path transform="translate(90,824)" d="m0 0 5 1 9 6 1 3-5-2-5-4-3-1v-2z" fill="#27ACC8" />
    <path transform="translate(625,916)" d="m0 0h5l-3 3-8 2h-5l5-4z" fill="#29AECB" />
    <path transform="translate(106,673)" d="m0 0 2 1-3 5h-3l-2 4-2-2z" fill="#1E9EB8" />
    <path transform="translate(217,210)" d="m0 0 1 4-3 5-6 2 2-4z" fill="#148CA3" />
    <path transform="translate(701,1029)" d="m0 0h10v2l-2 1h-9l-1-2z" fill="#25A9C6" />
    <path transform="translate(139,847)" d="m0 0h7l10 2-3 2-10-1z" fill="#29AECB" />
    <path transform="translate(332,286)" d="m0 0 2 1-1 4-4 5-3 1 2-5z" fill="#28ADCA" />
    <path transform="translate(742,914)" d="m0 0m-1 1 2 3-8 4v-4z" fill="#27ACC8" />
    <path transform="translate(767,900)" d="m0 0h3l-1 3-6 4h-5l1-2 3-1 2-2z" fill="#27ACC8" />
    <path transform="translate(407,586)" d="m0 0 2 2h-2z" fill="#41CBE9" />
    <path transform="translate(381,589)" d="m0 0" fill="#41CBE9" />
    <path transform="translate(407,582)" d="m0 0" fill="#41CBE9" />
</svg>